<?xml version="1.0" encoding="UTF-8" standalone="no"?>
<svg width="100px" height="100px" xmlns="http://www.w3.org/2000/svg" version="1.1">
    <title>Slice 1</title>
    <description>Created with Sketch (http://www.bohemiancoding.com/sketch)</description>
    <defs>
        <linearGradient id="gradient-1" x1="50%" y1="0%" x2="50%" y2="100%">
            <stop offset="0%" style="stop-color:rgb(255,255,255); stop-opacity:100"></stop>
            <stop offset="100%" style="stop-color:rgb(0,0,0); stop-opacity:100"></stop>
        </linearGradient>
        <linearGradient id="gradient-2" x1="50%" y1="0%" x2="50%" y2="100%">
            <stop offset="0%" style="stop-color:rgb(255,255,255); stop-opacity:100"></stop>
            <stop offset="100%" style="stop-color:rgb(0,0,0); stop-opacity:100"></stop>
        </linearGradient>
        <linearGradient id="gradient-3" x1="50%" y1="0%" x2="50%" y2="100%">
            <stop offset="0%" style="stop-color:rgb(255,255,255); stop-opacity:100"></stop>
            <stop offset="100%" style="stop-color:rgb(0,0,0); stop-opacity:100"></stop>
        </linearGradient>
        <linearGradient id="gradient-4" x1="50%" y1="0%" x2="50%" y2="100%">
            <stop offset="0%" style="stop-color:rgb(255,255,255); stop-opacity:100"></stop>
            <stop offset="100%" style="stop-color:rgb(0,0,0); stop-opacity:100"></stop>
        </linearGradient>
        <linearGradient id="gradient-5" x1="50%" y1="0%" x2="50%" y2="100%">
            <stop offset="0%" style="stop-color:rgb(255,255,255); stop-opacity:100"></stop>
            <stop offset="100%" style="stop-color:rgb(0,0,0); stop-opacity:100"></stop>
        </linearGradient>
        <linearGradient id="gradient-6" x1="50%" y1="0%" x2="50%" y2="100%">
            <stop offset="0%" style="stop-color:rgb(255,255,255); stop-opacity:100"></stop>
            <stop offset="100%" style="stop-color:rgb(0,0,0); stop-opacity:100"></stop>
        </linearGradient>
        <linearGradient id="gradient-7" x1="50%" y1="0%" x2="50%" y2="100%">
            <stop offset="0%" style="stop-color:rgb(255,255,255); stop-opacity:100"></stop>
            <stop offset="100%" style="stop-color:rgb(0,0,0); stop-opacity:100"></stop>
        </linearGradient>
    </defs>
    <g fill="rgb(215,215,215)" id="Page 1">
        <g fill="rgb(45,45,45)" id="Shape"></g>
        <path id="Shape" d="M2,54 C0,53 0,51 0,49 C0,48 0,46 2,45 L2,45 C10,40 22,34 29,29 L29,40 C26,42 22,44 12,49 L12,49 C18,52 24,56 29,59 L29,70 L2,54 L2,54 L2,54" fill="rgb(45,45,45)"></path>
        <path id="Shape decoration" d="" fill="rgb(45,45,45)"></path>
        <g fill="rgb(45,45,45)" id="Shape"></g>
        <path id="Shape" d="M97,45 C99,46 99,48 99,50 C99,51 99,53 97,54 L97,54 C89,59 77,65 70,70 L70,59 C73,57 77,55 87,50 L87,50 C81,47 75,43 70,40 L70,29 L97,45 L97,45 L97,45" fill="rgb(45,45,45)"></path>
        <path id="Shape decoration" d="" fill="rgb(45,45,45)"></path>
        <g fill="rgb(45,45,45)" id="Shape"></g>
        <path id="Shape" d="M46,71 L39,71 L53,28 L60,28 L46,71 L46,71 L46,71" fill="rgb(45,45,45)"></path>
        <path id="Shape decoration" d="" fill="rgb(45,45,45)"></path>
    </g>
</svg>